<svg width="1201" height="360" viewBox="0 0 1201 360" fill="none" xmlns="http://www.w3.org/2000/svg">
<path fill-rule="evenodd" clip-rule="evenodd" d="M0.5 0L14.5 18C29.5 36 57.5 72 86.5 72C114.5 72 143.5 36 171.5 72C200.5 108 229.5 216 257.5 234C286.5 252 314.5 180 343.5 150C371.5 120 400.5 132 429.5 138C457.5 144 486.5 144 514.5 138C543.5 132 571.5 120 600.5 132C629.5 144 657.5 180 686.5 162C714.5 144 743.5 72 771.5 84C800.5 96 829.5 192 857.5 210C886.5 228 914.5 168 943.5 138C971.5 108 1000.5 108 1029.5 120C1057.5 132 1086.5 156 1114.5 162C1143.5 168 1171.5 156 1186.5 150L1200.5 144V360H1186.5C1171.5 360 1143.5 360 1114.5 360C1086.5 360 1057.5 360 1029.5 360C1000.5 360 971.5 360 943.5 360C914.5 360 886.5 360 857.5 360C829.5 360 800.5 360 771.5 360C743.5 360 714.5 360 686.5 360C657.5 360 629.5 360 600.5 360C571.5 360 543.5 360 514.5 360C486.5 360 457.5 360 429.5 360C400.5 360 371.5 360 343.5 360C314.5 360 286.5 360 257.5 360C229.5 360 200.5 360 171.5 360C143.5 360 114.5 360 86.5 360C57.5 360 29.5 360 14.5 360H0.5V0Z" fill="#0099FF"/>
</svg>
